<svg viewBox="0 0 32 32" fill="none" xmlns="http://www.w3.org/2000/svg">
<path d="M9 17H15" stroke="currentColor" stroke-width="1.2" stroke-linejoin="round"/>
<path d="M9 13H15" stroke="currentColor" stroke-width="1.2" stroke-linejoin="round"/>
<path d="M24.5 21C27.5376 21 30 18.5376 30 15.5C30 12.4624 27.5376 10 24.5 10C21.4624 10 19 12.4624 19 15.5C19 18.5376 21.4624 21 24.5 21Z" stroke="currentColor" stroke-width="1.2" stroke-linecap="round" stroke-linejoin="round"/>
<path d="M21 24H5C4.73478 24 4.48043 23.8946 4.29289 23.7071C4.10536 23.5196 4 23.2652 4 23V7C4 6.73478 4.10536 6.48043 4.29289 6.29289C4.48043 6.10536 4.73478 6 5 6H27C27.2652 6 27.5196 6.10536 27.7071 6.29289C27.8946 6.48043 28 6.73478 28 7V11.2575" stroke="currentColor" stroke-width="1.2" stroke-linejoin="round"/>
<path d="M21 19.7427V28.0002L24.5 26.0002L28 28.0002V19.7427" stroke="currentColor" stroke-width="1.2" stroke-linejoin="round"/>
</svg>
