<svg viewBox="0 0 32 32" fill="none" xmlns="http://www.w3.org/2000/svg">
<path d="M12 19L11 16" stroke="currentColor" stroke-width="1.2" stroke-linecap="square" stroke-linejoin="round"/>
<path d="M20 19L21 16" stroke="currentColor" stroke-width="1.2" stroke-linecap="square" stroke-linejoin="round"/>
<path d="M16 20V16" stroke="currentColor" stroke-width="1.2" stroke-linecap="square" stroke-linejoin="round"/>
<path d="M21.7064 8.14C22.5292 7.95909 23.3808 7.95345 24.2058 8.12345C25.0309 8.29345 25.8109 8.63527 26.4951 9.12668C27.1793 9.61808 27.7523 10.2481 28.177 10.9756C28.6016 11.7031 28.8682 12.5119 28.9596 13.3493C29.0509 14.1868 28.9649 15.034 28.7072 15.836C28.4494 16.638 28.0256 17.3767 27.4635 18.0041C26.9013 18.6314 26.2133 19.1334 25.4444 19.4773C24.6754 19.8212 23.8426 19.9993 23.0002 20H9.00018C8.15779 19.9993 7.325 19.8212 6.556 19.4773C5.78701 19.1334 5.09904 18.6314 4.53688 18.0041C3.97472 17.3767 3.55096 16.638 3.29319 15.836C3.03541 15.034 2.94941 14.1868 3.04075 13.3493C3.1321 12.5119 3.39877 11.7031 3.82339 10.9756C4.24801 10.2481 4.82107 9.61808 5.50527 9.12668C6.18947 8.63527 6.96948 8.29345 7.79454 8.12345C8.61959 7.95345 9.4712 7.95909 10.2939 8.14" stroke="currentColor" stroke-width="1.2" stroke-linecap="square" stroke-linejoin="round"/>
<path d="M10 11C10 9.4087 10.6321 7.88258 11.7574 6.75736C12.8826 5.63214 14.4087 5 16 5C17.5913 5 19.1174 5.63214 20.2426 6.75736C21.3679 7.88258 22 9.4087 22 11" stroke="currentColor" stroke-width="1.2" stroke-linecap="square" stroke-linejoin="round"/>
<path d="M25 20V25.9999C25 26.2652 24.8946 26.5195 24.7071 26.707C24.5196 26.8946 24.2652 26.9999 24 26.9999H8C7.73478 26.9999 7.48043 26.8946 7.29289 26.707C7.10536 26.5195 7 26.2652 7 25.9999V20" stroke="currentColor" stroke-width="1.2" stroke-linecap="square" stroke-linejoin="round"/>
</svg>
