<svg viewBox="0 0 32 32" fill="none" xmlns="http://www.w3.org/2000/svg">
<path d="M20.2938 17.2936C20.1783 17.1784 20.0928 17.0368 20.0446 16.881C19.9965 16.7252 19.9872 16.56 20.0175 16.3997C20.0478 16.2395 20.1168 16.0891 20.2186 15.9617C20.3203 15.8343 20.4517 15.7336 20.6013 15.6686L26.4025 13.4411C26.5848 13.3583 26.738 13.2227 26.8424 13.0519C26.9467 12.8811 26.9974 12.6828 26.9878 12.4829C26.9783 12.2829 26.9089 12.0904 26.7887 11.9303C26.6686 11.7702 26.5031 11.6499 26.3138 11.5849L6.30502 5.05112C6.13128 4.99762 5.94623 4.99249 5.76979 5.0363C5.59335 5.0801 5.43219 5.17118 5.30364 5.29973C5.17509 5.42828 5.08401 5.58944 5.04021 5.76588C4.9964 5.94232 5.00152 6.12737 5.05502 6.30112L11.585 26.3136C11.65 26.5029 11.7704 26.6684 11.9305 26.7886C12.0906 26.9087 12.2831 26.9781 12.483 26.9877C12.683 26.9972 12.8812 26.9465 13.0521 26.8422C13.2229 26.7378 13.3585 26.5846 13.4413 26.4024L15.6688 20.6011C15.7338 20.4516 15.8344 20.3202 15.9618 20.2184C16.0893 20.1167 16.2397 20.0476 16.3999 20.0173C16.5601 19.987 16.7253 19.9963 16.8811 20.0445C17.0369 20.0926 17.1786 20.1782 17.2938 20.2936L23.7075 26.7074C23.895 26.8948 24.1493 27 24.4144 27C24.6795 27 24.9338 26.8948 25.1213 26.7074L26.7075 25.1249C26.8949 24.9373 27.0002 24.6831 27.0002 24.418C27.0002 24.1529 26.8949 23.8986 26.7075 23.7111L20.2938 17.2936Z" stroke="currentColor" stroke-width="1.2" stroke-linejoin="round"/>
</svg>
