<svg viewBox="0 0 32 32" fill="none" xmlns="http://www.w3.org/2000/svg">
<path d="M16.0001 8.99998L15.9971 9.6L16.0031 9.59997L16.0001 8.99998ZM16.0001 23L16.0031 22.4L15.9971 22.4L16.0001 23ZM19.8051 6.75748L20.3865 6.90558L20.3868 6.90455L19.8051 6.75748ZM20.9563 6.00748L20.8558 6.59901L20.8587 6.59949L20.9563 6.00748ZM25.4613 6.74998L25.3637 7.34199L25.3652 7.34223L25.4613 6.74998ZM26.2788 7.49998L25.697 7.64668L25.6972 7.64756L26.2788 7.49998ZM29.9701 22.0462L30.5526 21.9026L30.5516 21.8987L29.9701 22.0462ZM29.4013 23.2012L29.16 22.6519L29.1582 22.6527L29.4013 23.2012ZM21.0263 26.9137L20.7832 26.3652L20.7783 26.3674L21.0263 26.9137ZM19.6513 26.3437L19.0884 26.5513L19.0895 26.5544L19.6513 26.3437ZM12.1951 6.75748L11.6134 6.90455L11.6136 6.90558L12.1951 6.75748ZM11.0438 6.00748L11.1414 6.5995L11.1443 6.599L11.0438 6.00748ZM6.53881 6.74998L6.63496 7.34223L6.63639 7.34199L6.53881 6.74998ZM5.72131 7.49998L6.30288 7.64758L6.3031 7.64668L5.72131 7.49998ZM2.03006 22.0437L1.44849 21.8961L1.44752 21.9001L2.03006 22.0437ZM2.59881 23.1987L2.84197 22.6502L2.84011 22.6494L2.59881 23.1987ZM10.9738 26.9112L11.2218 26.3649L11.217 26.3627L10.9738 26.9112ZM12.3488 26.3412L12.9106 26.5519L12.9117 26.5489L12.3488 26.3412ZM10.0001 9.78873L10.158 10.3676C12.0606 9.84837 14.0249 9.59014 15.9971 9.59997L16.0001 8.99998L16.0031 8.39999C13.9222 8.38962 11.8496 8.66208 9.84211 9.20989L10.0001 9.78873ZM16.0001 8.99998L16.0031 9.59997C17.9752 9.59014 19.9395 9.84837 21.8421 10.3676L22.0001 9.78873L22.158 9.20989C20.1505 8.66208 18.0779 8.38962 15.9971 8.39999L16.0001 8.99998ZM22.0001 22.2112L21.8421 21.6324C19.9395 22.1516 17.9752 22.4098 16.0031 22.4L16.0001 23L15.9971 23.6C18.0779 23.6103 20.1505 23.3379 22.158 22.7901L22.0001 22.2112ZM16.0001 23L15.9971 22.4C14.0249 22.4098 12.0606 22.1516 10.158 21.6324L10.0001 22.2112L9.84211 22.7901C11.8496 23.3379 13.9222 23.6103 16.0031 23.6L16.0001 23ZM12.7501 17.5H12.1501C12.1501 17.859 11.859 18.15 11.5001 18.15V18.75V19.35C12.5218 19.35 13.3501 18.5217 13.3501 17.5H12.7501ZM11.5001 18.75V18.15C11.1411 18.15 10.8501 17.859 10.8501 17.5H10.2501H9.65006C9.65006 18.5217 10.4783 19.35 11.5001 19.35V18.75ZM10.2501 17.5H10.8501C10.8501 17.141 11.1411 16.85 11.5001 16.85V16.25V15.65C10.4783 15.65 9.65006 16.4783 9.65006 17.5H10.2501ZM11.5001 16.25V16.85C11.859 16.85 12.1501 17.141 12.1501 17.5H12.7501H13.3501C13.3501 16.4783 12.5218 15.65 11.5001 15.65V16.25ZM21.7501 17.5H21.1501C21.1501 17.859 20.8591 18.15 20.5001 18.15V18.75V19.35C21.5218 19.35 22.3501 18.5217 22.3501 17.5H21.7501ZM20.5001 18.75V18.15C20.1411 18.15 19.8501 17.859 19.8501 17.5H19.2501H18.6501C18.6501 18.5217 19.4783 19.35 20.5001 19.35V18.75ZM19.2501 17.5H19.8501C19.8501 17.141 20.1411 16.85 20.5001 16.85V16.25V15.65C19.4783 15.65 18.6501 16.4783 18.6501 17.5H19.2501ZM20.5001 16.25V16.85C20.8591 16.85 21.1501 17.141 21.1501 17.5H21.7501H22.3501C22.3501 16.4783 21.5218 15.65 20.5001 15.65V16.25ZM19.1801 9.21123L19.7615 9.35933L20.3865 6.90558L19.8051 6.75748L19.2236 6.60938L18.5986 9.06313L19.1801 9.21123ZM19.8051 6.75748L20.3868 6.90455C20.4122 6.80397 20.4746 6.71667 20.5615 6.66004L20.234 6.15731L19.9065 5.65458C19.5667 5.87595 19.3228 6.21723 19.2234 6.61041L19.8051 6.75748ZM20.234 6.15731L20.5615 6.66004C20.6484 6.60341 20.7535 6.58162 20.8558 6.599L20.9563 6.00748L21.0568 5.41596C20.657 5.34801 20.2463 5.43321 19.9065 5.65458L20.234 6.15731ZM20.9563 6.00748L20.8587 6.59949L25.3637 7.34199L25.4613 6.74998L25.5589 6.15797L21.0539 5.41547L20.9563 6.00748ZM25.4613 6.74998L25.3652 7.34223C25.4442 7.35505 25.5177 7.39071 25.5766 7.44481L25.9823 7.00269L26.3879 6.56056C26.1563 6.34812 25.8676 6.20809 25.5575 6.15773L25.4613 6.74998ZM25.9823 7.00269L25.5766 7.44481C25.6356 7.49891 25.6775 7.56908 25.697 7.64668L26.2788 7.49998L26.8606 7.35328C26.7838 7.04857 26.6194 6.773 26.3879 6.56056L25.9823 7.00269ZM26.2788 7.49998L25.6972 7.64756L29.3885 22.1938L29.9701 22.0462L30.5516 21.8987L26.8604 7.3524L26.2788 7.49998ZM29.9701 22.0462L29.3875 22.1899C29.4101 22.2814 29.3996 22.3778 29.358 22.4624L29.8963 22.7274L30.4346 22.9925C30.601 22.6544 30.6428 22.2684 30.5526 21.9026L29.9701 22.0462ZM29.8963 22.7274L29.358 22.4624C29.3164 22.5469 29.2463 22.614 29.16 22.6519L29.4013 23.2012L29.6426 23.7506C29.9876 23.599 30.2681 23.3306 30.4346 22.9925L29.8963 22.7274ZM29.4013 23.2012L29.1582 22.6527L20.7832 26.3652L21.0263 26.9137L21.2695 27.4623L29.6445 23.7498L29.4013 23.2012ZM21.0263 26.9137L20.7783 26.3674C20.7261 26.3911 20.6695 26.4038 20.6122 26.4048L20.6221 27.0047L20.632 27.6046C20.8538 27.6009 21.0724 27.5517 21.2743 27.4601L21.0263 26.9137ZM20.6221 27.0047L20.6122 26.4048C20.5548 26.4057 20.4979 26.3949 20.4449 26.3729L20.2151 26.9272L19.9853 27.4814C20.1902 27.5664 20.4103 27.6083 20.632 27.6046L20.6221 27.0047ZM20.2151 26.9272L20.4449 26.3729C20.3919 26.3509 20.344 26.3183 20.3041 26.2771L19.8726 26.694L19.4411 27.1109C19.5952 27.2704 19.7805 27.3965 19.9853 27.4814L20.2151 26.9272ZM19.8726 26.694L20.3041 26.2771C20.2642 26.2358 20.2333 26.1868 20.2131 26.1331L19.6513 26.3437L19.0895 26.5544C19.1674 26.762 19.287 26.9515 19.4411 27.1109L19.8726 26.694ZM19.6513 26.3437L20.2143 26.1362L18.938 22.6749L18.3751 22.8825L17.8121 23.0901L19.0884 26.5513L19.6513 26.3437ZM12.8201 9.21123L13.4015 9.06313L12.7765 6.60938L12.1951 6.75748L11.6136 6.90558L12.2386 9.35933L12.8201 9.21123ZM12.1951 6.75748L12.7768 6.61041C12.6774 6.21723 12.4334 5.87595 12.0936 5.65458L11.7661 6.15731L11.4386 6.66004C11.5255 6.71667 11.5879 6.80397 11.6134 6.90455L12.1951 6.75748ZM11.7661 6.15731L12.0936 5.65458C11.7538 5.43321 11.3431 5.34801 10.9433 5.41596L11.0438 6.00748L11.1443 6.599C11.2466 6.58162 11.3517 6.60341 11.4386 6.66004L11.7661 6.15731ZM11.0438 6.00748L10.9462 5.41547L6.44124 6.15797L6.53881 6.74998L6.63639 7.34199L11.1414 6.59949L11.0438 6.00748ZM6.53881 6.74998L6.44267 6.15773C6.13248 6.20809 5.84381 6.34812 5.61225 6.56056L6.01787 7.00269L6.42349 7.44481C6.48246 7.39071 6.55597 7.35505 6.63496 7.34223L6.53881 6.74998ZM6.01787 7.00269L5.61225 6.56056C5.38069 6.773 5.21636 7.04857 5.13953 7.35328L5.72131 7.49998L6.3031 7.64668C6.32267 7.56908 6.36452 7.49891 6.42349 7.44481L6.01787 7.00269ZM5.72131 7.49998L5.13975 7.35238L1.4485 21.8961L2.03006 22.0437L2.61163 22.1913L6.30288 7.64758L5.72131 7.49998ZM2.03006 22.0437L1.44752 21.9001C1.35729 22.2659 1.3991 22.6519 1.56557 22.99L2.10385 22.7249L2.64213 22.4599C2.60051 22.3754 2.59006 22.2789 2.61261 22.1874L2.03006 22.0437ZM2.10385 22.7249L1.56557 22.99C1.73204 23.3281 2.0125 23.5965 2.35752 23.7481L2.59881 23.1987L2.84011 22.6494C2.75386 22.6115 2.68374 22.5444 2.64213 22.4599L2.10385 22.7249ZM2.59881 23.1987L2.35566 23.7473L10.7307 27.4598L10.9738 26.9112L11.217 26.3627L2.84197 22.6502L2.59881 23.1987ZM10.9738 26.9112L10.7258 27.4576C10.9277 27.5492 11.1464 27.5984 11.3681 27.6021L11.378 27.0022L11.388 26.4023C11.3306 26.4013 11.2741 26.3886 11.2218 26.3649L10.9738 26.9112ZM11.378 27.0022L11.3681 27.6021C11.5898 27.6058 11.8099 27.5639 12.0148 27.4789L11.785 26.9247L11.5553 26.3704C11.5023 26.3924 11.4453 26.4032 11.388 26.4023L11.378 27.0022ZM11.785 26.9247L12.0148 27.4789C12.2197 27.394 12.4049 27.2679 12.559 27.1084L12.1275 26.6915L11.696 26.2746C11.6562 26.3158 11.6083 26.3484 11.5553 26.3704L11.785 26.9247ZM12.1275 26.6915L12.559 27.1084C12.7131 26.949 12.8328 26.7595 12.9106 26.5519L12.3488 26.3412L11.787 26.1306C11.7669 26.1843 11.7359 26.2333 11.696 26.2746L12.1275 26.6915ZM12.3488 26.3412L12.9117 26.5489L14.188 23.0902L13.6251 22.8825L13.0622 22.6748L11.7859 26.1335L12.3488 26.3412Z" fill="currentColor"/>
</svg>
