<svg viewBox="0 0 32 32" fill="none" xmlns="http://www.w3.org/2000/svg">
<path d="M8.875 25.6588C10.6554 22.7098 13.1676 20.2709 16.1681 18.5786C19.1685 16.8864 22.5553 15.9981 26 16C26.6737 16 27.3413 16.0337 28 16.0987M23.5 6.63625C21.6265 8.93899 19.2631 10.7949 16.5817 12.0687C13.9003 13.3426 10.9686 14.0024 8 14C6.73497 14.0003 5.47273 13.8815 4.23 13.645M10.7413 5.21125C13.7488 6.97548 16.2425 9.49576 17.9749 12.5218C19.7072 15.5479 20.6178 18.9744 20.6162 22.4613C20.6174 24.0951 20.4188 25.723 20.025 27.3088M28 16C28 22.6274 22.6274 28 16 28C9.37258 28 4 22.6274 4 16C4 9.37258 9.37258 4 16 4C22.6274 4 28 9.37258 28 16Z" stroke="currentColor" stroke-width="1.2" stroke-linejoin="round"/>
</svg>
