<svg viewBox="0 0 32 32" fill="none" xmlns="http://www.w3.org/2000/svg">
<g clip-path="url(#clip0_52060_10424)">
<path d="M16 28C22.6274 28 28 22.6274 28 16C28 9.37258 22.6274 4 16 4C9.37258 4 4 9.37258 4 16C4 22.6274 9.37258 28 16 28Z" stroke="currentColor" stroke-width="1.2" stroke-linecap="round" stroke-linejoin="round"/>
<path d="M9.48486 15.4077L11.1499 12.5002C11.2378 12.3479 11.3642 12.2216 11.5165 12.1338C11.6688 12.046 11.8416 11.9999 12.0174 12.0002H14.1061C14.275 12.0005 14.4411 11.9574 14.5886 11.8752L16.1249 11.0302C16.1925 10.9938 16.2551 10.9489 16.3111 10.8964L19.6761 7.85518C19.8435 7.7029 19.9544 7.49833 19.9905 7.27491C20.0266 7.05149 19.9858 6.82243 19.8749 6.62518L18.5624 4.27393" stroke="currentColor" stroke-width="1.2" stroke-linecap="round" stroke-linejoin="round"/>
<path d="M8.47258 6.65381L7.00008 10.1351C6.90061 10.3707 6.89525 10.6356 6.98508 10.8751L8.42258 14.7088C8.48164 14.8654 8.57908 15.0048 8.70597 15.114C8.83286 15.2232 8.98513 15.2987 9.14883 15.3338L11.8276 15.9101C11.9762 15.9419 12.1155 16.0072 12.2351 16.101C12.3546 16.1948 12.4512 16.3146 12.5176 16.4513L12.9926 17.4351C13.0745 17.6041 13.2024 17.7466 13.3616 17.8463C13.5207 17.946 13.7048 17.9988 13.8926 17.9988H15.6176" stroke="currentColor" stroke-width="1.2" stroke-linecap="round" stroke-linejoin="round"/>
<path d="M26.6364 21.5598L20.0889 17.5323C19.9698 17.4597 19.8371 17.4125 19.6989 17.3936L16.8464 17.0086C16.6322 16.9795 16.4143 17.0208 16.2255 17.126C16.0366 17.2312 15.887 17.3948 15.7989 17.5923L14.0864 21.4348C14.0068 21.6136 13.9815 21.8118 14.0135 22.0049C14.0454 22.198 14.1334 22.3775 14.2664 22.5211L16.7339 25.0623C16.8409 25.1773 16.9193 25.3159 16.9627 25.4668C17.0061 25.6177 17.0134 25.7768 16.9839 25.9311L16.5877 27.9861" stroke="currentColor" stroke-width="1.2" stroke-linecap="round" stroke-linejoin="round"/>
</g>
<defs>
<clipPath id="clip0_52060_10424">
<rect width="32" height="32" fill="white"/>
</clipPath>
</defs>
</svg>
