<svg viewBox="0 0 32 32" fill="none" xmlns="http://www.w3.org/2000/svg">
<g clip-path="url(#clip0_52060_10436)">
<path d="M17.7225 2.00001C18.0928 1.99891 18.4536 2.11727 18.7513 2.3375C19.049 2.55773 19.2677 2.86809 19.375 3.22251L24 18.5L26.5338 21.0338L20.9088 26.4088L17.1663 22.6663C16.4195 21.9167 16.0002 20.9018 16 19.8438V3.71876C16.001 3.26257 16.1829 2.82541 16.5058 2.50319C16.8288 2.18097 17.2663 2.00001 17.7225 2.00001Z" stroke="currentColor" stroke-width="1.2" stroke-linecap="round" stroke-linejoin="round"/>
<path d="M20.9136 26.4137L23.2073 28.7075C23.3948 28.8949 23.6491 29.0001 23.9142 29.0001C24.1793 29.0001 24.4336 28.8949 24.6211 28.7075L28.7073 24.625C28.8947 24.4375 29 24.1832 29 23.9181C29 23.653 28.8947 23.3987 28.7073 23.2112L26.4136 20.9175" stroke="currentColor" stroke-width="1.2" stroke-linecap="round" stroke-linejoin="round"/>
<path d="M14.8289 22.6713L11.0864 26.4138L5.58643 20.9138L8.00018 18.5L12.6252 3.22251C12.7325 2.86809 12.9512 2.55773 13.2489 2.3375C13.5466 2.11727 13.9074 1.99891 14.2777 2.00001C14.7345 2.00001 15.1726 2.18148 15.4957 2.50452C15.8187 2.82755 16.0002 3.26567 16.0002 3.72251V19.8475C15.999 20.9067 15.5778 21.9222 14.8289 22.6713Z" stroke="currentColor" stroke-width="1.2" stroke-linecap="round" stroke-linejoin="round"/>
<path d="M5.58641 20.9136L3.29266 23.2073C3.10527 23.3948 3 23.6491 3 23.9142C3 24.1793 3.10527 24.4336 3.29266 24.6211L7.37516 28.7073C7.56268 28.8947 7.81693 29 8.08204 29C8.34714 29 8.60139 28.8947 8.78891 28.7073L11.0827 26.4136" stroke="currentColor" stroke-width="1.2" stroke-linecap="round" stroke-linejoin="round"/>
</g>
<defs>
<clipPath id="clip0_52060_10436">
<rect width="32" height="32" fill="white"/>
</clipPath>
</defs>
</svg>
