<svg viewBox="0 0 32 32" fill="none" xmlns="http://www.w3.org/2000/svg">
<g clip-path="url(#clip0_52060_10399)">
<path d="M25 19L20 24L12 22L5 17" stroke="currentColor" stroke-width="1.2" stroke-linecap="round" stroke-linejoin="round"/>
<path d="M9.08496 8.82875L16 7L22.915 8.82875" stroke="currentColor" stroke-width="1.2" stroke-linecap="round" stroke-linejoin="round"/>
<path d="M4.2961 7.55236L1.1061 13.9349C0.987545 14.1719 0.967953 14.4463 1.05163 14.6978C1.13531 14.9493 1.3154 15.1573 1.55235 15.2761L4.99985 16.9999L9.08485 8.82861L5.6386 7.10611C5.52116 7.04721 5.39326 7.01204 5.26222 7.00259C5.13117 6.99314 4.99956 7.00961 4.87488 7.05105C4.7502 7.09249 4.63492 7.1581 4.53561 7.24412C4.4363 7.33013 4.35491 7.43488 4.2961 7.55236Z" stroke="currentColor" stroke-width="1.2" stroke-linecap="round" stroke-linejoin="round"/>
<path d="M27 16.9999L30.4475 15.2761C30.6845 15.1573 30.8646 14.9493 30.9483 14.6978C31.0319 14.4463 31.0123 14.1719 30.8938 13.9349L27.7038 7.55236C27.645 7.43488 27.5636 7.33013 27.4643 7.24412C27.365 7.1581 27.2497 7.09249 27.125 7.05105C27.0003 7.00961 26.8687 6.99314 26.7377 7.00259C26.6066 7.01204 26.4787 7.04721 26.3613 7.10611L22.915 8.82861L27 16.9999Z" stroke="currentColor" stroke-width="1.2" stroke-linecap="round" stroke-linejoin="round"/>
<path d="M23.0001 9H18.0001L12.2926 14.5363C12.1865 14.6423 12.1056 14.7709 12.0559 14.9124C12.0063 15.054 11.9891 15.2049 12.0056 15.354C12.0222 15.5031 12.0721 15.6465 12.1516 15.7737C12.2312 15.9009 12.3383 16.0086 12.4651 16.0888C14.6538 17.4875 17.6251 17.3912 20.0001 15L25.0001 19L27.0001 17" stroke="currentColor" stroke-width="1.2" stroke-linecap="round" stroke-linejoin="round"/>
<path d="M15.5075 27L10.2925 25.6963L7 23.3438" stroke="currentColor" stroke-width="1.2" stroke-linecap="round" stroke-linejoin="round"/>
</g>
<defs>
<clipPath id="clip0_52060_10399">
<rect width="32" height="32" fill="white"/>
</clipPath>
</defs>
</svg>
