<svg viewBox="0 0 32 32" fill="none" xmlns="http://www.w3.org/2000/svg">
<g clip-path="url(#clip0_52060_10417)">
<path d="M16 28C16 28 3 21 3 12.75C3 10.9598 3.71116 9.2429 4.97703 7.97703C6.2429 6.71116 7.95979 6 9.75 6C12.5738 6 14.9925 7.53875 16 10V28Z" stroke="currentColor" stroke-width="1.2" stroke-linecap="round" stroke-linejoin="round"/>
<path d="M16 10.0002C16.855 7.91148 18.7262 6.54148 21 6.11523" stroke="currentColor" stroke-width="1.2" stroke-linecap="round" stroke-linejoin="round"/>
<path d="M26 7.13623C26.8177 7.68248 27.5062 8.40079 28.0172 9.24092C28.5283 10.081 28.8496 11.0227 28.9587 12" stroke="currentColor" stroke-width="1.2" stroke-linecap="round" stroke-linejoin="round"/>
<path d="M27.9125 17C27.1875 18.4562 26.1562 19.8288 25 21.0788" stroke="currentColor" stroke-width="1.2" stroke-linecap="round" stroke-linejoin="round"/>
<path d="M21 24.686C19.4165 25.9112 17.7453 27.0187 16 27.9998" stroke="currentColor" stroke-width="1.2" stroke-linecap="round" stroke-linejoin="round"/>
</g>
<defs>
<clipPath id="clip0_52060_10417">
<rect width="32" height="32" fill="white"/>
</clipPath>
</defs>
</svg>
