<svg viewBox="0 0 32 32" fill="none" xmlns="http://www.w3.org/2000/svg">
<path d="M23 23V26C23 26.2652 22.8946 26.5196 22.7071 26.7071C22.5196 26.8946 22.2652 27 22 27H6C5.73478 27 5.48043 26.8946 5.29289 26.7071C5.10536 26.5196 5 26.2652 5 26V10C5 9.73478 5.10536 9.48043 5.29289 9.29289C5.48043 9.10536 5.73478 9 6 9H9M12.0863 23L21.7925 13.2925C21.8854 13.1995 21.9957 13.1258 22.1171 13.0754C22.2385 13.0251 22.3686 12.9992 22.5 12.9992C22.6314 12.9992 22.7615 13.0251 22.8829 13.0754C23.0043 13.1258 23.1146 13.1995 23.2075 13.2925L27 17.0863M10 5H26C26.5523 5 27 5.44772 27 6V22C27 22.5523 26.5523 23 26 23H10C9.44772 23 9 22.5523 9 22V6C9 5.44772 9.44772 5 10 5ZM17 11C17 12.1046 16.1046 13 15 13C13.8954 13 13 12.1046 13 11C13 9.89543 13.8954 9 15 9C16.1046 9 17 9.89543 17 11Z" stroke="currentColor" stroke-width="1.2" stroke-linejoin="round"/>
</svg>
