<svg viewBox="0 0 32 32" fill="none" xmlns="http://www.w3.org/2000/svg">
<path d="M13.3285 19.0163L12.2423 20.2425C11.4032 21.0817 10.3341 21.6531 9.1702 21.8847C8.0063 22.1162 6.79988 21.9974 5.7035 21.5433C4.60712 21.0892 3.67003 20.3202 3.01072 19.3335C2.35142 18.3468 1.99951 17.1867 1.99951 16C1.99951 14.8133 2.35142 13.6532 3.01072 12.6665C3.67003 11.6798 4.60712 10.9108 5.7035 10.4567C6.79988 10.0026 8.0063 9.88378 9.1702 10.1153C10.3341 10.3469 11.4032 10.9183 12.2423 11.7575L19.7573 20.2425C20.5964 21.0817 21.6655 21.6531 22.8294 21.8847C23.9933 22.1162 25.1997 21.9974 26.2961 21.5433C27.3925 21.0892 28.3296 20.3202 28.9889 19.3335C29.6482 18.3468 30.0001 17.1867 30.0001 16C30.0001 14.8133 29.6482 13.6532 28.9889 12.6665C28.3296 11.6798 27.3925 10.9108 26.2961 10.4567C25.1997 10.0026 23.9933 9.88378 22.8294 10.1153C21.6655 10.3469 20.5964 10.9183 19.7573 11.7575L18.671 12.9838" stroke="currentColor" stroke-width="1.2" stroke-linejoin="round"/>
</svg>
