<svg viewBox="0 0 32 32" fill="none" xmlns="http://www.w3.org/2000/svg">
<path d="M17.6725 8.08486L19.0475 6.70986C19.5886 6.16855 20.2311 5.73915 20.9383 5.44619C21.6454 5.15323 22.4033 5.00244 23.1687 5.00244C23.9341 5.00244 24.6921 5.15323 25.3992 5.44619C26.1063 5.73915 26.7488 6.16855 27.29 6.70986C27.8313 7.25102 28.2607 7.89351 28.5536 8.60064C28.8466 9.30777 28.9974 10.0657 28.9974 10.8311C28.9974 11.5965 28.8466 12.3544 28.5536 13.0616C28.2607 13.7687 27.8313 14.4112 27.29 14.9524L22.95 19.2924C22.4082 19.8342 21.7649 20.264 21.0568 20.557C20.3488 20.85 19.5899 21.0005 18.8237 20.9999C18.0574 20.9993 17.2988 20.8476 16.5912 20.5536C15.8836 20.2595 15.2409 19.8288 14.7 19.2861C14.14 18.7264 13.7004 18.0581 13.4081 17.3223C13.1157 16.5865 12.9769 15.7988 13 15.0074M14.3275 23.9149L12.9525 25.2899C12.4107 25.8317 11.7674 26.2615 11.0593 26.5545C10.3513 26.8475 9.59244 26.998 8.82618 26.9974C8.05992 26.9968 7.30128 26.8451 6.59369 26.5511C5.8861 26.257 5.24344 25.8263 4.70248 25.2836C3.61246 24.1898 3.00104 22.7081 3.00244 21.1639C3.00385 19.6197 3.61797 18.1392 4.70998 17.0474L9.04998 12.7074C9.59113 12.1661 10.2336 11.7367 10.9408 11.4437C11.6479 11.1507 12.4058 10.9999 13.1712 10.9999C13.9366 10.9999 14.6946 11.1507 15.4017 11.4437C16.1088 11.7367 16.7513 12.1661 17.2925 12.7074C17.8547 13.2671 18.2963 13.936 18.59 14.673C18.8837 15.41 19.0232 16.1994 19 16.9924" stroke="currentColor" stroke-width="1.2" stroke-linejoin="round"/>
</svg>
