<svg viewBox="0 0 32 32" fill="none" xmlns="http://www.w3.org/2000/svg">
<path d="M15 14V22M11 14V22M15 17.5C15 16.5717 15.3687 15.6815 16.0251 15.0251C16.6815 14.3687 17.5717 14 18.5 14C19.4283 14 20.3185 14.3687 20.9749 15.0251C21.6313 15.6815 22 16.5717 22 17.5V22M5 4H27C27.5523 4 28 4.44772 28 5V27C28 27.5523 27.5523 28 27 28H5C4.44772 28 4 27.5523 4 27V5C4 4.44772 4.44772 4 5 4Z" stroke="currentColor" stroke-width="1.2" stroke-linejoin="round"/>
<path d="M11 11.75C11.6904 11.75 12.25 11.1904 12.25 10.5C12.25 9.80964 11.6904 9.25 11 9.25C10.3096 9.25 9.75 9.80964 9.75 10.5C9.75 11.1904 10.3096 11.75 11 11.75Z" fill="currentColor"/>
</svg>
