<svg viewBox="0 0 32 32" fill="none" xmlns="http://www.w3.org/2000/svg">
<path d="M12.0002 20.0002L20.0002 12.0002M14.0002 9.51396L17.7577 5.76396C18.886 4.65388 20.4073 4.03462 21.9901 4.04107C23.5729 4.04751 25.0891 4.67914 26.2083 5.79837C27.3275 6.91761 27.9592 8.43376 27.9656 10.0166C27.9721 11.5994 27.3528 13.1207 26.2427 14.249L22.4852 18.0002M9.51396 14.0002L5.76396 17.7577C4.65388 18.886 4.03462 20.4073 4.04107 21.9901C4.04751 23.5729 4.67914 25.0891 5.79837 26.2083C6.91761 27.3275 8.43376 27.9592 10.0166 27.9656C11.5994 27.9721 13.1207 27.3528 14.249 26.2427L18.0002 22.4852" stroke="currentColor" stroke-width="1.2" stroke-linejoin="round"/>
</svg>
