<svg viewBox="0 0 32 32" fill="none" xmlns="http://www.w3.org/2000/svg">
<path d="M16 25V30M6 6L26 28M21.54 23.0938C20.2109 24.1319 18.6169 24.7757 16.9396 24.9517C15.2624 25.1278 13.5694 24.8291 12.0537 24.0896C10.538 23.3501 9.26058 22.1996 8.36705 20.7693C7.47351 19.339 6.99983 17.6865 7 16M25 16C25.0021 17.3694 24.6904 18.7211 24.0888 19.9513M18.835 20.125C18.0011 20.6984 17.012 21.0037 16 21C14.6739 21 13.4021 20.4732 12.4645 19.5355C11.5268 18.5979 11 17.3261 11 16V11.5M11.4125 6.0075C11.8009 5.11366 12.442 4.35281 13.257 3.81849C14.072 3.28417 15.0254 2.99968 16 3C17.3261 3 18.5979 3.52678 19.5355 4.46447C20.4732 5.40215 21 6.67392 21 8V16C21.0003 16.175 20.9911 16.3498 20.9725 16.5238" stroke="currentColor" stroke-width="1.2" stroke-linejoin="round"/>
</svg>
