<svg viewBox="0 0 32 32" fill="none" xmlns="http://www.w3.org/2000/svg">
<path d="M2 27H11.5C12.7856 27 14.0423 26.6188 15.1112 25.9046C16.1801 25.1903 17.0132 24.1752 17.5052 22.9874C17.9972 21.7997 18.1259 20.4928 17.8751 19.2319C17.6243 17.971 17.0052 16.8128 16.0962 15.9038C15.1872 14.9948 14.029 14.3757 12.7681 14.1249C11.5072 13.8741 10.2003 14.0028 9.01256 14.4948C7.82484 14.9868 6.80968 15.8199 6.09545 16.8888C5.38122 17.9577 5 19.2144 5 20.5C5 25 2 27 2 27Z" stroke="currentColor" stroke-width="1.2" stroke-linecap="round" stroke-linejoin="round"/>
<path d="M14.0513 14.52C16.45 11.2863 22.4325 4 28 4C28 9.5675 20.7138 15.55 17.48 17.9487" stroke="currentColor" stroke-width="1.2" stroke-linecap="round" stroke-linejoin="round"/>
<path d="M17.5039 10.7334L21.5039 14.7334" stroke="currentColor" stroke-width="1.2"/>
</svg>
