<svg viewBox="0 0 32 32" fill="none" xmlns="http://www.w3.org/2000/svg">
<g clip-path="url(#clip0_52060_10383)">
<path d="M16 8C17.6569 8 19 6.65685 19 5C19 3.34315 17.6569 2 16 2C14.3431 2 13 3.34315 13 5C13 6.65685 14.3431 8 16 8Z" stroke="currentColor" stroke-width="1.2" stroke-linecap="round" stroke-linejoin="round"/>
<path d="M4.87504 12.8625C3.41379 12.1875 3.89379 10 5.50004 10H26.5C28.1088 10 28.5888 12.1875 27.125 12.8625L20 16L22.8588 26.8662C23.0202 27.2258 23.0336 27.6344 22.8961 28.0038C22.7587 28.3731 22.4814 28.6735 22.1242 28.8401C21.767 29.0066 21.3586 29.0259 20.9873 28.8937C20.616 28.7615 20.3117 28.4885 20.14 28.1338L16 21L11.86 28.1338C11.6884 28.4885 11.3841 28.7615 11.0128 28.8937C10.6415 29.0259 10.2331 29.0066 9.87592 28.8401C9.51873 28.6735 9.24142 28.3731 9.10395 28.0038C8.96648 27.6344 8.97989 27.2258 9.14129 26.8662L12 16L4.87504 12.8625Z" stroke="currentColor" stroke-width="1.2" stroke-linecap="round" stroke-linejoin="round"/>
</g>
<defs>
<clipPath id="clip0_52060_10383">
<rect width="32" height="32" fill="white"/>
</clipPath>
</defs>
</svg>
