<svg viewBox="0 0 32 32" fill="none" xmlns="http://www.w3.org/2000/svg">
<g clip-path="url(#clip0_52060_10410)">
<path d="M16 28C22.6274 28 28 22.6274 28 16C28 9.37258 22.6274 4 16 4C9.37258 4 4 9.37258 4 16C4 22.6274 9.37258 28 16 28Z" stroke="currentColor" stroke-width="1.2" stroke-linecap="round" stroke-linejoin="round"/>
<path d="M16 8.59961C16.7732 8.59961 17.4004 9.2268 17.4004 10C17.4004 10.7732 16.7732 11.4004 16 11.4004C15.2268 11.4004 14.5996 10.7732 14.5996 10C14.5996 9.2268 15.2268 8.59961 16 8.59961Z" fill="currentColor" stroke="currentColor" stroke-width="1.2"/>
<path d="M10 14H22" stroke="currentColor" stroke-width="1.2" stroke-linecap="round" stroke-linejoin="round"/>
<path d="M20 23L16 17L12 23" stroke="currentColor" stroke-width="1.2" stroke-linecap="round" stroke-linejoin="round"/>
<path d="M16 14V17" stroke="currentColor" stroke-width="1.2" stroke-linecap="round" stroke-linejoin="round"/>
</g>
<defs>
<clipPath id="clip0_52060_10410">
<rect width="32" height="32" fill="white"/>
</clipPath>
</defs>
</svg>
