<svg viewBox="0 0 32 32" fill="none" xmlns="http://www.w3.org/2000/svg">
<path d="M9 4.98485V27.0148C9.00327 27.1906 9.05282 27.3625 9.14368 27.513C9.23453 27.6635 9.36347 27.7875 9.51749 27.8723C9.67152 27.9571 9.84518 27.9998 10.021 27.9961C10.1967 27.9923 10.3684 27.9423 10.5188 27.8511L28.5287 16.8361C28.6726 16.749 28.7916 16.6263 28.8741 16.4798C28.9567 16.3333 29.0001 16.168 29.0001 15.9998C29.0001 15.8317 28.9567 15.6664 28.8741 15.5199C28.7916 15.3734 28.6726 15.2507 28.5287 15.1636L10.5188 4.1486C10.3684 4.05736 10.1967 4.00736 10.021 4.00364C9.84518 3.99993 9.67152 4.04262 9.51749 4.12743C9.36347 4.21224 9.23453 4.33616 9.14368 4.48669C9.05282 4.63722 9.00327 4.80905 9 4.98485Z" stroke="currentColor" stroke-width="1.2" stroke-linejoin="round"/>
</svg>
