<svg viewBox="0 0 32 32" fill="none" xmlns="http://www.w3.org/2000/svg">
<g clip-path="url(#clip0_52060_10450)">
<path d="M19 29L16 26L19 23" stroke="currentColor" stroke-width="1.2" stroke-linecap="round" stroke-linejoin="round"/>
<path d="M24.3286 9.39893L23.2298 13.4977L19.1323 12.3989" stroke="currentColor" stroke-width="1.2" stroke-linecap="round" stroke-linejoin="round"/>
<path d="M9.87008 17.5963L8.77008 13.5L4.67383 14.5962" stroke="currentColor" stroke-width="1.2" stroke-linecap="round" stroke-linejoin="round"/>
<path d="M8.7699 13.5L3.2699 23C3.09445 23.3039 3.00204 23.6486 3.00195 23.9995C3.00186 24.3504 3.0941 24.6951 3.26939 24.9991C3.44468 25.3031 3.69687 25.5556 4.00062 25.7313C4.30437 25.907 4.649 25.9996 4.9999 26H10.9999" stroke="currentColor" stroke-width="1.2" stroke-linecap="round" stroke-linejoin="round"/>
<path d="M16 26H27C27.3509 25.9996 27.6955 25.907 27.9993 25.7313C28.303 25.5556 28.5552 25.3031 28.7305 24.9991C28.9058 24.6951 28.998 24.3504 28.9979 23.9995C28.9979 23.6486 28.9054 23.3039 28.73 23L25.8375 18" stroke="currentColor" stroke-width="1.2" stroke-linecap="round" stroke-linejoin="round"/>
<path d="M23.23 13.5001L17.73 4.00008C17.5544 3.69642 17.3019 3.44429 16.9981 3.26901C16.6942 3.09373 16.3496 3.00146 15.9987 3.00146C15.6479 3.00146 15.3033 3.09373 14.9994 3.26901C14.6956 3.44429 14.4431 3.69642 14.2675 4.00008L11.375 9.00008" stroke="currentColor" stroke-width="1.2" stroke-linecap="round" stroke-linejoin="round"/>
</g>
<defs>
<clipPath id="clip0_52060_10450">
<rect width="32" height="32" fill="white"/>
</clipPath>
</defs>
</svg>
