<svg viewBox="0 0 32 32" fill="none" xmlns="http://www.w3.org/2000/svg">
<path d="M16.0002 23.6363L22.8402 27.8426C23.0177 27.9503 23.2231 28.003 23.4305 27.994C23.6379 27.985 23.838 27.9148 24.0055 27.7921C24.173 27.6694 24.3004 27.4999 24.3715 27.3048C24.4427 27.1098 24.4544 26.898 24.4052 26.6963L22.5452 18.8476L28.6327 13.5976C28.7879 13.4613 28.8998 13.2825 28.9546 13.0834C29.0094 12.8842 29.0046 12.6734 28.941 12.4769C28.8773 12.2804 28.7575 12.1069 28.5963 11.9777C28.4351 11.8485 28.2396 11.7694 28.034 11.7501L20.0452 11.1001L16.9677 3.65007C16.8893 3.45787 16.7553 3.29339 16.583 3.17761C16.4107 3.06183 16.2078 3 16.0002 3C15.7926 3 15.5897 3.06183 15.4174 3.17761C15.2451 3.29339 15.1112 3.45787 15.0327 3.65007L11.9552 11.1001L3.96647 11.7501C3.75943 11.7683 3.56233 11.847 3.39981 11.9766C3.23728 12.1061 3.11654 12.2807 3.05265 12.4785C2.98877 12.6763 2.98459 12.8885 3.04062 13.0886C3.09666 13.2888 3.21043 13.468 3.36772 13.6038L9.45522 18.8538L7.59522 26.6963C7.54605 26.898 7.55777 27.1098 7.62891 27.3048C7.70005 27.4999 7.82742 27.6694 7.99491 27.7921C8.1624 27.9148 8.3625 27.985 8.56991 27.994C8.77733 28.003 8.98275 27.9503 9.16022 27.8426L16.0002 23.6363Z" stroke="currentColor" stroke-width="1.2" stroke-linejoin="round"/>
<circle cx="20.01" cy="11.01" r="0.01" fill="currentColor"/>
</svg>
