<svg viewBox="0 0 32 32" fill="none" xmlns="http://www.w3.org/2000/svg">
<path d="M8.99984 13.0002C8.99984 11.9393 9.42127 10.9219 10.1714 10.1717C10.9216 9.42159 11.939 9.00016 12.9998 9.00016L14.9998 13.0002L13.4598 15.3089C14.0707 16.7686 15.2314 17.9293 16.6911 18.5402L18.9998 17.0002L22.9998 19.0002C22.9998 20.061 22.5784 21.0784 21.8283 21.8286C21.0781 22.5787 20.0607 23.0002 18.9998 23.0002C16.3477 23.0002 13.8041 21.9466 11.9288 20.0712C10.0534 18.1959 8.99984 15.6523 8.99984 13.0002Z" stroke="currentColor" stroke-width="1.2" stroke-linejoin="round"/>
<path d="M9.99109 26.3889C12.5118 27.8478 15.4769 28.3401 18.3338 27.7742C21.1907 27.2083 23.7443 25.6227 25.5184 23.3131C27.2926 21.0035 28.1663 18.1275 27.9766 15.2213C27.7869 12.3151 26.5467 9.57703 24.4873 7.51766C22.428 5.45829 19.6899 4.21814 16.7837 4.02843C13.8775 3.83872 11.0015 4.71239 8.69189 6.48656C6.38228 8.26073 4.7967 10.8143 4.23078 13.6712C3.66486 16.5281 4.15723 19.4932 5.61609 22.0139L4.05234 26.6827C3.99358 26.8589 3.98505 27.0479 4.02771 27.2287C4.07037 27.4095 4.16254 27.5748 4.29387 27.7061C4.42521 27.8375 4.59052 27.9296 4.77129 27.9723C4.95206 28.0149 5.14114 28.0064 5.31734 27.9477L9.99109 26.3889Z" stroke="currentColor" stroke-width="1.2" stroke-linejoin="round"/>
</svg>
