<svg viewBox="0 0 300 200" fill="none" xmlns="http://www.w3.org/2000/svg">
<path fill-rule="evenodd" clip-rule="evenodd" d="M229.74 88.3032L229.07 88.7835C228.823 87.3075 228.634 84.6835 224.848 84.6835H217.863C217.863 94.137 217.663 100.088 217.957 109.483C218.051 112.083 219.203 113.641 222.096 113.641L221.473 115.188H207.691L208.314 113.641C210.125 113.641 211.725 112.763 211.725 111.252C211.725 108.311 211.678 92.2275 211.678 84.6835H206.28C202.494 84.6835 200.236 87.0381 199.013 88.5024L198.295 88.0338L201.859 82.2586H229.74V88.3032ZM59.5004 81.052C69.0725 81.052 76.3633 88.4321 76.4103 98.7759C76.3633 109.108 69.0725 116.5 59.5004 116.5C49.9283 116.5 42.6376 109.108 42.5905 98.7759C42.6376 88.4321 49.9283 81.052 59.5004 81.052ZM74.0584 98.7759C74.0819 89.8027 66.8382 86.9912 59.5004 86.8624C52.1626 86.9912 44.9659 89.8027 44.9424 98.7759C44.9659 107.749 52.1626 110.56 59.5004 110.689C66.8382 110.56 74.0349 107.749 74.0584 98.7759ZM50.093 98.7759C50.093 96.6087 51.8451 94.8633 54.0206 94.8633C56.196 94.8633 57.9482 96.6087 57.9482 98.7759C57.9482 100.943 56.196 102.688 54.0206 102.688C51.8451 102.688 50.093 100.943 50.093 98.7759ZM61.0526 98.7759C61.0526 96.6087 62.8048 94.8633 64.9802 94.8633C67.144 94.8633 68.9079 96.6087 68.9079 98.7759C68.9079 100.943 67.144 102.688 64.9802 102.688C62.8048 102.688 61.0526 100.943 61.0526 98.7759ZM233.961 98.7759C233.961 89.2404 241.37 81.9658 251.741 81.9189C262.113 81.9658 269.533 89.2404 269.533 98.7759C269.533 108.311 262.113 115.586 251.741 115.633C241.37 115.586 233.961 108.311 233.961 98.7759ZM251.741 84.2618C242.746 84.2383 239.923 91.4544 239.794 98.7759C239.923 106.086 242.746 113.266 251.741 113.29C260.749 113.266 263.571 106.086 263.701 98.7759C263.571 91.4544 260.749 84.2852 251.741 84.2618ZM38.3689 82.2586L37.7457 83.8049C35.9348 83.8049 34.606 84.6366 34.606 86.2064C34.606 95.6013 34.5589 99.6779 34.5589 109.073C34.5589 112.985 34.0886 116.511 31.3839 120.073C28.7616 123.517 24.3048 125.321 22 126C24.4577 124.243 26.2216 121.841 27.0565 120.237C28.1384 118.175 28.4794 114.063 28.4794 112.353C28.4794 102.571 28.5264 93.0592 28.4323 87.9635C28.3853 85.3278 27.1388 83.8049 24.2931 83.8049L24.8693 82.2586H38.3689ZM104.468 106.144C104.468 112.107 98.2708 115.586 92.9674 115.586C88.8869 115.586 85.9941 114.403 83.3953 112.212C82.9955 110.197 83.3483 108.534 82.9014 106.578L83.7128 106.437C85.8765 113.138 90.4627 113.231 92.8615 113.231C96.895 113.231 98.6001 110.385 98.6001 107.901C98.6001 98.5533 82.8426 101.048 82.8426 90.0369C82.8426 84.6601 89.369 81.9189 93.5906 81.9189C96.2365 81.9189 99.3762 82.7975 101.093 84.3086C101.493 86.3235 101.199 88.1861 101.634 90.1424L100.823 90.3298C99.094 84.5429 95.5662 84.2149 93.72 84.2149C91.9914 84.2149 88.687 85.2692 88.687 88.5258C88.687 97.9207 104.468 95.0273 104.468 106.144ZM139.323 107.995L136.688 115.188H111.206L111.829 113.641C113.64 113.641 115.251 112.763 115.251 111.252V96.4213C115.251 92.3095 115.251 89.9198 115.192 87.9635C115.145 85.3278 113.958 83.8049 111.053 83.8049L111.676 82.2586H134.337L136.042 88.0338L135.418 88.5024C134.725 87.0381 133.949 84.6835 130.162 84.6835H121.378C121.378 84.6835 121.425 91.2787 121.425 95.2967C121.425 96.7141 121.378 97.5927 121.378 97.5927H121.813C123.93 97.5927 124.094 97.5927 128.022 97.499C130.621 97.3936 132.196 96.8078 132.196 93.973H133.184V102.548H132.196C132.196 100.744 131.314 99.467 129.786 99.467C127.975 99.467 127.116 99.4201 125.353 99.4201C124.318 99.4201 123.095 99.4201 121.378 99.467C121.378 99.467 121.425 109.975 121.472 110.42C121.625 111.345 122.013 111.79 122.695 112.13C123.777 112.716 126.528 112.81 128.986 112.81H132.573C135.172 112.81 137.276 110.361 138.805 107.526L139.323 107.995ZM173.213 107.995L170.579 115.188H145.085L145.708 113.641C147.519 113.641 149.13 112.763 149.13 111.252C149.13 108.311 149.177 92.9538 149.071 87.9166C149.024 85.2692 147.836 83.8049 144.932 83.8049L145.555 82.2586H159.066L158.396 83.8049C156.585 83.8049 155.303 84.6366 155.303 86.2064C155.303 86.2064 155.303 109.975 155.35 110.42C155.503 111.345 155.891 111.79 156.585 112.13C158.302 113.056 164.241 112.81 166.451 112.81C169.05 112.81 171.167 110.361 172.684 107.526L173.213 107.995ZM192.921 113.641L192.345 115.188H178.563L179.175 113.641C180.998 113.641 182.597 112.763 182.597 111.252C182.597 108.311 182.656 93.0592 182.55 87.9635C182.503 85.3278 181.315 83.8049 178.41 83.8049L179.034 82.2586H192.816L192.145 83.8049C190.334 83.8049 188.782 84.6366 188.782 86.2064C188.782 95.6013 188.535 100.088 188.829 109.483C188.923 112.083 190.076 113.641 192.921 113.641ZM273.825 82.2586C276.071 82.2586 278 80.5132 278 78.1117C278 75.7454 276.071 74 273.825 74C271.544 74 269.616 75.7454 269.616 78.1117C269.616 80.5132 271.544 82.2586 273.825 82.2586ZM270.451 78.1117C270.451 76.1672 271.92 74.6911 273.825 74.6911C275.695 74.6911 277.165 76.1672 277.165 78.1117C277.165 80.1032 275.695 81.5675 273.825 81.5675C271.92 81.5675 270.451 80.1032 270.451 78.1117ZM272.943 78.4397H273.778L275.037 80.5132H275.848L274.484 78.4163C275.19 78.3226 275.73 77.9477 275.73 77.1043C275.73 76.1672 275.166 75.7454 274.037 75.7454H272.214V80.5132H272.943V78.4397ZM272.943 77.8306V76.3546H273.931C274.437 76.3546 274.966 76.4717 274.966 77.0574C274.966 77.7954 274.425 77.8306 273.814 77.8306H272.943Z" fill="currentColor"/>
</svg>
