<svg viewBox="0 0 200 200" fill="none" xmlns="http://www.w3.org/2000/svg">
<path fill-rule="evenodd" clip-rule="evenodd" d="M100 16C145.285 16 179.777 50.9769 180 100C179.777 148.968 145.285 184 100 184C54.7149 184 20.2225 148.968 20 100C20.2225 50.9769 54.7149 16 100 16ZM168.873 100C168.985 57.4726 134.715 44.148 100 43.5373C65.2851 44.148 31.2378 57.4726 31.1266 100C31.2378 142.527 65.2851 155.852 100 156.463C134.715 155.852 168.762 142.527 168.873 100ZM55.4937 100C55.4937 89.729 63.783 81.4567 74.0751 81.4567C84.3672 81.4567 92.6565 89.729 92.6565 100C92.6565 110.271 84.3672 118.543 74.0751 118.543C63.783 118.543 55.4937 110.271 55.4937 100ZM107.344 100C107.344 89.729 115.633 81.4567 125.925 81.4567C136.161 81.4567 144.506 89.729 144.506 100C144.506 110.271 136.161 118.543 125.925 118.543C115.633 118.543 107.344 110.271 107.344 100Z" fill="currentColor"/>
</svg>
